# xmcd
#
# Track frame offsets: 
#        150
#        17889
#        42264
#        68946
#        86783
#        105418
#        125685
#        148028
#        165857
#        181958
#        193483
#        218902
#        236483
#        261341
#
# Disc length: 3884 seconds
#
# Revision: 0
# Processed by: cddbd v1.5.2PL0 Copyright (c) Steve Scherf et al.
# Submitted via: ExactAudioCopy v0.99pb4
#
DISCID=cd0f2a0e
DTITLE=Erick Bamy - Best of Rhythm´n´Blues
DYEAR=1900
DGENRE=Blues
TTITLE0=I can´t turn you loose
TTITLE1=Nothing from nothing
TTITLE2=Respect
TTITLE3=If you don´t know me by now
TTITLE4=In the midnight hour
TTITLE5=Sail away
TTITLE6=6, 3, 4, 7, 8, 9
TTITLE7=Try a little tenderness
TTITLE8=The letter
TTITLE9=You are so beautiful
TTITLE10=Livin´ for the city
TTITLE11=Knock on wood
TTITLE12=I´ve been lovin´ you too long
TTITLE13=Everybody needs somebody to love
EXTD=
EXTT0=
EXTT1=
EXTT2=
EXTT3=
EXTT4=
EXTT5=
EXTT6=
EXTT7=
EXTT8=
EXTT9=
EXTT10=
EXTT11=
EXTT12=
EXTT13=
PLAYORDER=
